<svg id="visual" viewBox="0 0 960 540" width="960" height="540" xmlns="http://www.w3.org/2000/svg" xmlns:xlink="http://www.w3.org/1999/xlink" version="1.1"><rect x="0" y="0" width="960" height="540" fill="#000000"></rect><path d="M555 540L546.5 533.5C538 527 521 514 516.8 501.2C512.7 488.3 521.3 475.7 529.3 462.8C537.3 450 544.7 437 544.5 424.2C544.3 411.3 536.7 398.7 528.3 385.8C520 373 511 360 512.8 347.2C514.7 334.3 527.3 321.7 538.2 308.8C549 296 558 283 559.2 270C560.3 257 553.7 244 541.2 231.2C528.7 218.3 510.3 205.7 512.5 192.8C514.7 180 537.3 167 545.8 154.2C554.3 141.3 548.7 128.7 538.7 115.8C528.7 103 514.3 90 518.5 77.2C522.7 64.3 545.3 51.7 554.3 38.8C563.3 26 558.7 13 556.3 6.5L554 0L960 0L960 6.5C960 13 960 26 960 38.8C960 51.7 960 64.3 960 77.2C960 90 960 103 960 115.8C960 128.7 960 141.3 960 154.2C960 167 960 180 960 192.8C960 205.7 960 218.3 960 231.2C960 244 960 257 960 270C960 283 960 296 960 308.8C960 321.7 960 334.3 960 347.2C960 360 960 373 960 385.8C960 398.7 960 411.3 960 424.2C960 437 960 450 960 462.8C960 475.7 960 488.3 960 501.2C960 514 960 527 960 533.5L960 540Z" fill="#444444"></path><path d="M630 540L631 533.5C632 527 634 514 647.2 501.2C660.3 488.3 684.7 475.7 692.8 462.8C701 450 693 437 688.5 424.2C684 411.3 683 398.7 685 385.8C687 373 692 360 694 347.2C696 334.3 695 321.7 693.2 308.8C691.3 296 688.7 283 690.5 270C692.3 257 698.7 244 695.2 231.2C691.7 218.3 678.3 205.7 674.5 192.8C670.7 180 676.3 167 682.5 154.2C688.7 141.3 695.3 128.7 697.2 115.8C699 103 696 90 689 77.2C682 64.3 671 51.7 673.2 38.8C675.3 26 690.7 13 698.3 6.5L706 0L960 0L960 6.5C960 13 960 26 960 38.8C960 51.7 960 64.3 960 77.2C960 90 960 103 960 115.8C960 128.7 960 141.3 960 154.2C960 167 960 180 960 192.8C960 205.7 960 218.3 960 231.2C960 244 960 257 960 270C960 283 960 296 960 308.8C960 321.7 960 334.3 960 347.2C960 360 960 373 960 385.8C960 398.7 960 411.3 960 424.2C960 437 960 450 960 462.8C960 475.7 960 488.3 960 501.2C960 514 960 527 960 533.5L960 540Z" fill="#9c9c9c"></path><path d="M850 540L848 533.5C846 527 842 514 836.5 501.2C831 488.3 824 475.7 814.8 462.8C805.7 450 794.3 437 798 424.2C801.7 411.3 820.3 398.7 827.5 385.8C834.7 373 830.3 360 833.7 347.2C837 334.3 848 321.7 841.8 308.8C835.7 296 812.3 283 811.2 270C810 257 831 244 837.5 231.2C844 218.3 836 205.7 834.8 192.8C833.7 180 839.3 167 843.2 154.2C847 141.3 849 128.7 840.3 115.8C831.7 103 812.3 90 806.2 77.2C800 64.3 807 51.7 816.3 38.8C825.7 26 837.3 13 843.2 6.5L849 0L960 0L960 6.5C960 13 960 26 960 38.8C960 51.7 960 64.3 960 77.2C960 90 960 103 960 115.8C960 128.7 960 141.3 960 154.2C960 167 960 180 960 192.8C960 205.7 960 218.3 960 231.2C960 244 960 257 960 270C960 283 960 296 960 308.8C960 321.7 960 334.3 960 347.2C960 360 960 373 960 385.8C960 398.7 960 411.3 960 424.2C960 437 960 450 960 462.8C960 475.7 960 488.3 960 501.2C960 514 960 527 960 533.5L960 540Z" fill="#ffffff"></path></svg>