<svg id="visual" viewBox="0 0 960 300" width="960" height="300" xmlns="http://www.w3.org/2000/svg" xmlns:xlink="http://www.w3.org/1999/xlink" version="1.1"><path d="M492 300L510.2 287.5C528.3 275 564.7 250 576.7 225C588.7 200 576.3 175 565.8 150C555.3 125 546.7 100 549.2 75C551.7 50 565.3 25 572.2 12.5L579 0L960 0L960 12.5C960 25 960 50 960 75C960 100 960 125 960 150C960 175 960 200 960 225C960 250 960 275 960 287.5L960 300Z" fill="#eeeeee"></path><path d="M645 300L651 287.5C657 275 669 250 677.7 225C686.3 200 691.7 175 685 150C678.3 125 659.7 100 642.2 75C624.7 50 608.3 25 600.2 12.5L592 0L960 0L960 12.5C960 25 960 50 960 75C960 100 960 125 960 150C960 175 960 200 960 225C960 250 960 275 960 287.5L960 300Z" fill="#9d9d9d"></path><path d="M744 300L749.5 287.5C755 275 766 250 768.2 225C770.3 200 763.7 175 759.5 150C755.3 125 753.7 100 751.8 75C750 50 748 25 747 12.5L746 0L960 0L960 12.5C960 25 960 50 960 75C960 100 960 125 960 150C960 175 960 200 960 225C960 250 960 275 960 287.5L960 300Z" fill="#535353"></path><path d="M831 300L828.8 287.5C826.7 275 822.3 250 828.2 225C834 200 850 175 855.7 150C861.3 125 856.7 100 860.5 75C864.3 50 876.7 25 882.8 12.5L889 0L960 0L960 12.5C960 25 960 50 960 75C960 100 960 125 960 150C960 175 960 200 960 225C960 250 960 275 960 287.5L960 300Z" fill="#131313"></path></svg>