<svg width="1440" height="1024" viewBox="0 0 1440 1024" fill="none" xmlns="http://www.w3.org/2000/svg">
<rect width="1440" height="1024" fill="#1E1E1E"/>
<g clip-path="url(#clip0_0_1)">
<rect width="1440" height="1024" fill="white"/>
<path d="M642 212.5C700.491 115.836 841 2.5 841 2.5L1301 -160L1627.5 -97.5L1668.5 364L1627.5 912.5C1550.67 993.167 1394.8 1154.5 1386 1154.5C1377.2 1154.5 1039 1110.17 871 1088C871 1088 726.277 942.822 660.5 831C622.903 767.085 601.485 730.162 579 659.5C558.992 596.623 547.706 559.484 547.5 493.5C547.138 377.724 582.063 311.554 642 212.5Z" fill="#F4F4F4"/>
<path d="M1068.5 211C1207.1 156.113 1445 148 1445 148L1694 728L1537.5 1169L1118 1265L75 1082.5C75 1082.5 131.763 1031.9 173 1006.5C226.53 973.529 261.273 963.087 320.5 942C431.658 902.423 543.43 972.038 616 879C643.094 844.264 647.337 817.541 662 776C688.168 701.865 678.16 653.727 701 578.5C723.028 505.948 731.768 461.29 775 399C852.611 287.177 941.945 261.116 1068.5 211Z" fill="#222222"/>
<path d="M1118.5 388.274C1242.82 360.736 1441.5 432.774 1441.5 432.774L1650 630.274V903.273L1639 1124.77C1540.5 1155.61 1341.3 1217.27 1332.5 1217.27C1321.5 1217.27 867.5 1198.77 856.5 1195.27C847.7 1192.47 478.5 1119.11 295 1082.77L407.5 1003.27L474 980.773C474 980.773 573.411 949.376 635 923.773C689.442 901.142 720.62 889.06 771.5 859.274C819.279 831.302 859.988 825.818 887.5 777.774C919.714 721.517 887.5 713 887.5 611.774C887.5 510.547 907.184 508.508 950.5 462.274C999.515 409.956 1048.51 403.778 1118.5 388.274Z" fill="#3E3E3E"/>
<path d="M1136.5 645C1245.97 597.611 1437.5 593 1437.5 593C1486.17 644.667 1583.5 750.2 1583.5 759V1038C1534.83 1073.67 1433.8 1145 1419 1145H1098L690 1071C690 1071 785.203 950.817 854 881C954.898 778.605 1004.58 702.108 1136.5 645Z" fill="#D9D9D9" stroke="black"/>
<path d="M1221.5 800C1308.23 798.999 1439.5 842.5 1439.5 842.5L1506 873.5L1583.5 1027L1539 1158L1301 1197L1081 1158L880 1086C880 1086 861.014 1011.98 880 971.5C897.317 934.575 925.584 926.891 957.5 901.5C1002.72 865.525 1026.87 840.23 1081 820C1132.91 800.597 1166.08 800.639 1221.5 800Z" fill="#1A1A1A" stroke="black"/>
</g>
<defs>
<clipPath id="clip0_0_1">
<rect width="1440" height="1024" fill="white"/>
</clipPath>
</defs>
</svg>
