<svg id="visual" viewBox="0 0 1920 1080" width="1920" height="1080" xmlns="http://www.w3.org/2000/svg" xmlns:xlink="http://www.w3.org/1999/xlink" version="1.1"><rect x="0" y="0" width="1920" height="1080" fill="#070d11"></rect><path d="M0 693L32 704.3C64 715.7 128 738.3 192 746.2C256 754 320 747 384 749.7C448 752.3 512 764.7 576 773.2C640 781.7 704 786.3 768 786.2C832 786 896 781 960 758.3C1024 735.7 1088 695.3 1152 696.7C1216 698 1280 741 1344 737.5C1408 734 1472 684 1536 685.8C1600 687.7 1664 741.3 1728 748.3C1792 755.3 1856 715.7 1888 695.8L1920 676L1920 1081L1888 1081C1856 1081 1792 1081 1728 1081C1664 1081 1600 1081 1536 1081C1472 1081 1408 1081 1344 1081C1280 1081 1216 1081 1152 1081C1088 1081 1024 1081 960 1081C896 1081 832 1081 768 1081C704 1081 640 1081 576 1081C512 1081 448 1081 384 1081C320 1081 256 1081 192 1081C128 1081 64 1081 32 1081L0 1081Z" fill="#2cb41e"></path><path d="M0 803L32 787.3C64 771.7 128 740.3 192 731.5C256 722.7 320 736.3 384 740.5C448 744.7 512 739.3 576 754.7C640 770 704 806 768 794.3C832 782.7 896 723.3 960 693.8C1024 664.3 1088 664.7 1152 693.3C1216 722 1280 779 1344 793.7C1408 808.3 1472 780.7 1536 752.3C1600 724 1664 695 1728 708.7C1792 722.3 1856 778.7 1888 806.8L1920 835L1920 1081L1888 1081C1856 1081 1792 1081 1728 1081C1664 1081 1600 1081 1536 1081C1472 1081 1408 1081 1344 1081C1280 1081 1216 1081 1152 1081C1088 1081 1024 1081 960 1081C896 1081 832 1081 768 1081C704 1081 640 1081 576 1081C512 1081 448 1081 384 1081C320 1081 256 1081 192 1081C128 1081 64 1081 32 1081L0 1081Z" fill="#279420"></path><path d="M0 815L32 805C64 795 128 775 192 767.5C256 760 320 765 384 789.2C448 813.3 512 856.7 576 869.7C640 882.7 704 865.3 768 859.2C832 853 896 858 960 845.5C1024 833 1088 803 1152 797.7C1216 792.3 1280 811.7 1344 808.7C1408 805.7 1472 780.3 1536 788.8C1600 797.3 1664 839.7 1728 853.7C1792 867.7 1856 853.3 1888 846.2L1920 839L1920 1081L1888 1081C1856 1081 1792 1081 1728 1081C1664 1081 1600 1081 1536 1081C1472 1081 1408 1081 1344 1081C1280 1081 1216 1081 1152 1081C1088 1081 1024 1081 960 1081C896 1081 832 1081 768 1081C704 1081 640 1081 576 1081C512 1081 448 1081 384 1081C320 1081 256 1081 192 1081C128 1081 64 1081 32 1081L0 1081Z" fill="#23741f"></path><path d="M0 846L32 852.7C64 859.3 128 872.7 192 867C256 861.3 320 836.7 384 829C448 821.3 512 830.7 576 834.3C640 838 704 836 768 837.3C832 838.7 896 843.3 960 859C1024 874.7 1088 901.3 1152 907.7C1216 914 1280 900 1344 897.7C1408 895.3 1472 904.7 1536 910.8C1600 917 1664 920 1728 923C1792 926 1856 929 1888 930.5L1920 932L1920 1081L1888 1081C1856 1081 1792 1081 1728 1081C1664 1081 1600 1081 1536 1081C1472 1081 1408 1081 1344 1081C1280 1081 1216 1081 1152 1081C1088 1081 1024 1081 960 1081C896 1081 832 1081 768 1081C704 1081 640 1081 576 1081C512 1081 448 1081 384 1081C320 1081 256 1081 192 1081C128 1081 64 1081 32 1081L0 1081Z" fill="#1f561c"></path><path d="M0 937L32 933.2C64 929.3 128 921.7 192 917.3C256 913 320 912 384 925.7C448 939.3 512 967.7 576 963C640 958.3 704 920.7 768 904.8C832 889 896 895 960 900.3C1024 905.7 1088 910.3 1152 922.3C1216 934.3 1280 953.7 1344 968.5C1408 983.3 1472 993.7 1536 979.3C1600 965 1664 926 1728 915.8C1792 905.7 1856 924.3 1888 933.7L1920 943L1920 1081L1888 1081C1856 1081 1792 1081 1728 1081C1664 1081 1600 1081 1536 1081C1472 1081 1408 1081 1344 1081C1280 1081 1216 1081 1152 1081C1088 1081 1024 1081 960 1081C896 1081 832 1081 768 1081C704 1081 640 1081 576 1081C512 1081 448 1081 384 1081C320 1081 256 1081 192 1081C128 1081 64 1081 32 1081L0 1081Z" fill="#1a3a18"></path><path d="M0 1026L32 1030.7C64 1035.3 128 1044.7 192 1041.8C256 1039 320 1024 384 1019.3C448 1014.7 512 1020.3 576 1027.2C640 1034 704 1042 768 1038.5C832 1035 896 1020 960 1007.3C1024 994.7 1088 984.3 1152 987.3C1216 990.3 1280 1006.7 1344 1005.7C1408 1004.7 1472 986.3 1536 983.7C1600 981 1664 994 1728 999.5C1792 1005 1856 1003 1888 1002L1920 1001L1920 1081L1888 1081C1856 1081 1792 1081 1728 1081C1664 1081 1600 1081 1536 1081C1472 1081 1408 1081 1344 1081C1280 1081 1216 1081 1152 1081C1088 1081 1024 1081 960 1081C896 1081 832 1081 768 1081C704 1081 640 1081 576 1081C512 1081 448 1081 384 1081C320 1081 256 1081 192 1081C128 1081 64 1081 32 1081L0 1081Z" fill="#131f11"></path></svg>