<svg id="visual" viewBox="0 0 1920 1080" width="1920" height="1080" xmlns="http://www.w3.org/2000/svg" xmlns:xlink="http://www.w3.org/1999/xlink" version="1.1"><rect x="0" y="0" width="1920" height="1080" fill="#050f1a"></rect><path d="M0 769L32 757.3C64 745.7 128 722.3 192 725.7C256 729 320 759 384 778.8C448 798.7 512 808.3 576 801.5C640 794.7 704 771.3 768 776.2C832 781 896 814 960 810.7C1024 807.3 1088 767.7 1152 757.7C1216 747.7 1280 767.3 1344 761.5C1408 755.7 1472 724.3 1536 696.5C1600 668.7 1664 644.3 1728 643C1792 641.7 1856 663.3 1888 674.2L1920 685L1920 1081L1888 1081C1856 1081 1792 1081 1728 1081C1664 1081 1600 1081 1536 1081C1472 1081 1408 1081 1344 1081C1280 1081 1216 1081 1152 1081C1088 1081 1024 1081 960 1081C896 1081 832 1081 768 1081C704 1081 640 1081 576 1081C512 1081 448 1081 384 1081C320 1081 256 1081 192 1081C128 1081 64 1081 32 1081L0 1081Z" fill="#29e97e"></path><path d="M0 801L32 803.2C64 805.3 128 809.7 192 803.7C256 797.7 320 781.3 384 791.2C448 801 512 837 576 846.7C640 856.3 704 839.7 768 847C832 854.3 896 885.7 960 866.3C1024 847 1088 777 1152 777.2C1216 777.3 1280 847.7 1344 845.7C1408 843.7 1472 769.3 1536 755.8C1600 742.3 1664 789.7 1728 801.3C1792 813 1856 789 1888 777L1920 765L1920 1081L1888 1081C1856 1081 1792 1081 1728 1081C1664 1081 1600 1081 1536 1081C1472 1081 1408 1081 1344 1081C1280 1081 1216 1081 1152 1081C1088 1081 1024 1081 960 1081C896 1081 832 1081 768 1081C704 1081 640 1081 576 1081C512 1081 448 1081 384 1081C320 1081 256 1081 192 1081C128 1081 64 1081 32 1081L0 1081Z" fill="#1db468"></path><path d="M0 919L32 909.3C64 899.7 128 880.3 192 885.8C256 891.3 320 921.7 384 927.5C448 933.3 512 914.7 576 897.8C640 881 704 866 768 857.2C832 848.3 896 845.7 960 863.8C1024 882 1088 921 1152 928.7C1216 936.3 1280 912.7 1344 893.8C1408 875 1472 861 1536 865.3C1600 869.7 1664 892.3 1728 899.8C1792 907.3 1856 899.7 1888 895.8L1920 892L1920 1081L1888 1081C1856 1081 1792 1081 1728 1081C1664 1081 1600 1081 1536 1081C1472 1081 1408 1081 1344 1081C1280 1081 1216 1081 1152 1081C1088 1081 1024 1081 960 1081C896 1081 832 1081 768 1081C704 1081 640 1081 576 1081C512 1081 448 1081 384 1081C320 1081 256 1081 192 1081C128 1081 64 1081 32 1081L0 1081Z" fill="#1b8150"></path><path d="M0 918L32 925.2C64 932.3 128 946.7 192 947.5C256 948.3 320 935.7 384 921.5C448 907.3 512 891.7 576 889.8C640 888 704 900 768 900.7C832 901.3 896 890.7 960 895C1024 899.3 1088 918.7 1152 932.8C1216 947 1280 956 1344 944.7C1408 933.3 1472 901.7 1536 886.8C1600 872 1664 874 1728 893C1792 912 1856 948 1888 966L1920 984L1920 1081L1888 1081C1856 1081 1792 1081 1728 1081C1664 1081 1600 1081 1536 1081C1472 1081 1408 1081 1344 1081C1280 1081 1216 1081 1152 1081C1088 1081 1024 1081 960 1081C896 1081 832 1081 768 1081C704 1081 640 1081 576 1081C512 1081 448 1081 384 1081C320 1081 256 1081 192 1081C128 1081 64 1081 32 1081L0 1081Z" fill="#1a5137"></path><path d="M0 992L32 992.3C64 992.7 128 993.3 192 998.7C256 1004 320 1014 384 1007.7C448 1001.3 512 978.7 576 971.3C640 964 704 972 768 983.8C832 995.7 896 1011.3 960 1014.8C1024 1018.3 1088 1009.7 1152 1009.8C1216 1010 1280 1019 1344 1016.7C1408 1014.3 1472 1000.7 1536 992.5C1600 984.3 1664 981.7 1728 979.8C1792 978 1856 977 1888 976.5L1920 976L1920 1081L1888 1081C1856 1081 1792 1081 1728 1081C1664 1081 1600 1081 1536 1081C1472 1081 1408 1081 1344 1081C1280 1081 1216 1081 1152 1081C1088 1081 1024 1081 960 1081C896 1081 832 1081 768 1081C704 1081 640 1081 576 1081C512 1081 448 1081 384 1081C320 1081 256 1081 192 1081C128 1081 64 1081 32 1081L0 1081Z" fill="#15251d"></path></svg>